<?xml version="1.0" encoding="UTF-8"?>
<svg id="_图层_1" data-name="图层 1" xmlns="http://www.w3.org/2000/svg" viewBox="0 0 3358.37 749.23">
  <defs>
    <style>
      .cls-1 {
        fill: #3593ff;
      }

      .cls-2 {
        fill: #fff;
      }

      .cls-3 {
        fill: #00b491;
      }

      .cls-4 {
        fill: #ff9e15;
      }

      .cls-5 {
        fill: #358dff;
      }

      .cls-6 {
        fill: #ff0;
      }
    </style>
  </defs>
  <rect class="cls-1" x="1515.22" y="69" width="202.3" height="19.09" transform="translate(417.88 1165.95) rotate(-45)"/>
  <rect class="cls-1" x="1579.33" y="116.46" width="101.27" height="19.09" transform="translate(2693.42 1367.65) rotate(-135)"/>
  <rect class="cls-4" x="1723.76" y="195.99" width="134.06" height="19.09" transform="translate(379.18 1326.48) rotate(-45)"/>
  <rect class="cls-4" x="1501.72" y="197.87" width="135.13" height="19.09" transform="translate(2532.28 1463.72) rotate(-135)"/>
  <rect class="cls-4" x="1588.4" y="210.24" width="101.15" height="19.09" transform="translate(324.64 1223.3) rotate(-45)"/>
  <rect class="cls-4" x="1674.91" y="202.59" width="82.36" height="19.09" transform="translate(2779.55 1575.59) rotate(-135)"/>
  <rect class="cls-6" x="1670.69" y="166.72" width="19.09" height="19.09" transform="translate(2992.97 -887.19) rotate(135)"/>
  <rect class="cls-6" x="1518.86" y="156.98" width="19.09" height="19.09" transform="translate(2726.89 -796.47) rotate(135)"/>
  <rect class="cls-3" x="1670.91" y="78.98" width="170" height="19.09" transform="translate(2934.92 1392.73) rotate(-135)"/>
  <rect class="cls-3" x="1624.21" y="54.12" width="99.68" height="19.09" transform="translate(445.3 1202.38) rotate(-45)"/>
  <rect class="cls-3" x="1731.18" y="161.09" width="99.68" height="19.09" transform="translate(400.99 1309.35) rotate(-45)"/>
  <rect class="cls-6" x="1821.78" y="155.22" width="19.09" height="19.09" transform="translate(3242.77 -1013.67) rotate(135)"/>
  <rect class="cls-4" x="1385.44" y="184.88" width="135.13" height="279.61" transform="translate(2250.85 1581.7) rotate(-135)"/>
  <rect class="cls-4" x="1840.98" y="183.2" width="135.13" height="279.61" transform="translate(3486.49 -798.13) rotate(135)"/>
  <rect class="cls-5" x="1621.14" y="270.67" width="118.09" height="419.6"/>
  <rect class="cls-5" x="1638.44" y="228.89" width="83.57" height="83.57" transform="translate(3059.73 -726.03) rotate(135)"/>
  <g>
    <path class="cls-2" d="M1858.82,210.92l16.66,16.66-7.09,51.58c34.26-4.86,51.42-7.25,51.48-7.19l16.71,16.71c.09,.17,.06,.32-.08,.47l-58.72,58.72c-.19,.19-.34,.21-.47,.08l-16.22-16.22c-.16-.16-.15-.33,.03-.52l34.97-34.97-51.63,7.14-.24-.24c-.09-.17,2.24-17.43,7-51.78l-34.97,34.97c-.19,.19-.36,.19-.52,.03l-16.17-16.17c-.16-.16-.15-.33,.03-.52l58.72-58.72c.22-.15,.39-.16,.52-.03Z"/>
    <path class="cls-2" d="M1964.97,320.16l54.59,54.59c.12,.2,.11,.37-.04,.52l-13.53,13.53c-.18,.18-.36,.2-.52,.04l-45.74-45.74c-4.14-4.14-9.49-4.3-16.06-.48-1.02,.82-1.78,1.5-2.3,2.01l-11.49,11.49c-4.35,4.35-5.51,9.29-3.5,14.85,.4,1.14,1.13,2.24,2.19,3.29l45.74,45.74c.16,.16,.17,.32,.02,.46l-13.53,13.53c-.19,.19-.36,.2-.52,.04l-54.25-54.25c-5.61-5.61-7.66-12.89-6.15-21.84,1.05-4.26,2.97-7.78,5.77-10.58l27.62-27.62c4.82-4.82,11.45-6.67,19.87-5.54,5.06,1.16,9,3.15,11.83,5.97Z"/>
  </g>
  <rect class="cls-5" x="1534.65" y="397.82" width="83.57" height="377.14" transform="translate(3105.78 -113.67) rotate(135)"/>
  <rect class="cls-5" x="1594.78" y="543.19" width="381.42" height="83.57" transform="translate(3461.66 -263.92) rotate(135)"/>
  <rect class="cls-6" x="1429.25" y="439.21" width="84.12" height="84.12" transform="translate(2851.98 -218.8) rotate(135)"/>
  <rect class="cls-6" x="1848.9" y="437.45" width="84.12" height="84.12" transform="translate(3567.12 -518.54) rotate(135)"/>
  <g>
    <path class="cls-2" d="M1347.5,404.64l32.86-32.86c.09-.06,.16-.06,.22,0l5.5,5.5c.07,.08,.07,.15,0,.22l-12.54,12.55,18.25,18.25c.08,.08,.08,.15,0,.22l-7.5,7.5c-.08,.08-.15,.08-.22,0l-18.25-18.25-12.59,12.59c-.08,.08-.15,.08-.22,0l-5.5-5.5c-.06-.09-.06-.16,0-.22Z"/>
    <path class="cls-2" d="M1382.82,369.31l7.47-7.47c.09-.06,.17-.06,.22,0l23.86,23.86c.08,.08,.08,.15,0,.22l-7.47,7.47c-.07,.07-.15,.07-.22,0l-23.86-23.86c-.06-.09-.06-.16,0-.22Z"/>
    <path class="cls-2" d="M1392.77,359.37l7.54-7.54c8.8-.39,20.11-.85,33.93-1.39l.04-.04-16.16-16.16c-.06-.09-.06-.16,0-.22l7.5-7.5c.09-.06,.17-.06,.22,0l23.86,23.86c.08,.07,.08,.15,0,.22l-7.65,7.65-33.82,1.41,16.09,16.09c.07,.08,.07,.15,0,.22l-7.47,7.47c-.08,.08-.15,.08-.22,0l-23.86-23.86c-.06-.09-.06-.16,0-.22Z"/>
    <path class="cls-2" d="M1428.09,324.05l7.54-7.54c8.8-.39,20.11-.85,33.93-1.39l.05-.05-16.16-16.16c-.06-.09-.06-.16,0-.22l7.5-7.5c.09-.06,.16-.06,.22,0l23.86,23.86c.07,.07,.07,.15,0,.22l-7.65,7.65-33.82,1.41,16.09,16.09c.07,.07,.07,.15,0,.22l-7.47,7.47c-.08,.08-.15,.07-.22,0l-23.86-23.86c-.06-.09-.06-.16,0-.22Z"/>
    <path class="cls-2" d="M1463.41,288.72l32.86-32.86c.09-.06,.16-.06,.22,0l5.5,5.5c.07,.07,.08,.15,0,.22l-25.27,25.27,3.7,3.7,18.69-18.69c.09-.06,.17-.06,.22,0l5.01,5c.07,.07,.07,.15,0,.22l-18.7,18.69,3.72,3.73,25.27-25.27c.07-.07,.14-.08,.2-.02l5.5,5.5c.08,.07,.08,.15,0,.22l-32.86,32.86c-.08,.08-.15,.08-.23,0l-23.86-23.86c-.06-.09-.06-.16,0-.22Z"/>
    <path class="cls-2" d="M1498.74,253.4l25.36-25.36c2.3-2.3,5.2-3.43,8.69-3.39,2.26,.17,4.09,.95,5.5,2.36l4.35,4.35c2.26,2.26,2.89,5.37,1.88,9.34l-.54,1.39,11.76,2.38-.07,.16-9.11,9.11c-.48-.03-4.17-.75-11.09-2.15l-11.69,11.69,6.51,6.51c.07,.07,.07,.15,0,.22l-7.47,7.47c-.08,.08-.15,.07-.22,0l-23.86-23.86c-.06-.09-.06-.16,0-.22Zm13.31-1.86l6.01,6.01,14.61-14.61c1.56-1.56,1.86-3.22,.92-5-.25-.37-.53-.71-.83-1.01-1.45-1.45-3.02-1.81-4.71-1.08-.48,.27-.91,.6-1.3,.99l-14.7,14.7Z"/>
  </g>
  <g>
    <path class="cls-2" d="M1660.42,629.28v-39.9c.02-.12,.08-.18,.18-.18h8.61c.12,0,.18,.06,.18,.18v36.53c.26,2.04,1.24,3.06,2.95,3.06,1.15,0,2.02-.62,2.6-1.86,.16-.37,.25-.82,.25-1.34v-24.82c0-3.49,1.38-6.59,4.15-9.28,1.9-1.64,3.93-2.46,6.08-2.46h2.6c3.68,0,6.66,2.14,8.93,6.43,.8,1.78,1.2,3.61,1.2,5.48v39.73c0,.12-.06,.18-.18,.18h-8.61c-.09-.02-.14-.08-.14-.18v-36.35c0-1.48-.66-2.5-1.97-3.06-.56-.09-.89-.14-.98-.14-1.17,0-2.05,.61-2.64,1.83-.16,.37-.25,.83-.25,1.37v24.47c0,4.03-1.57,7.41-4.71,10.12-1.71,1.29-3.52,1.93-5.41,1.93h-2.6c-3.45,0-6.29-1.91-8.54-5.73-1.01-2.18-1.57-4.18-1.69-6.01Z"/>
    <path class="cls-2" d="M1660.42,585.51v-51.47c.02-.12,.08-.18,.18-.18h8.61c.12,0,.18,.06,.18,.18v51.47c0,.12-.06,.18-.18,.18h-8.61c-.12-.02-.18-.08-.18-.18Zm14.77,0v-51.47c.02-.12,.08-.18,.18-.18h7.84c.12,0,.18,.06,.18,.18v51.47c0,.12-.06,.18-.18,.18h-7.84c-.12-.02-.18-.08-.18-.18Zm14.03,0v-51.47c0-.12,.05-.18,.14-.18h8.61c.12,0,.18,.06,.18,.18v51.47c0,.12-.06,.18-.18,.18h-8.61c-.09-.02-.14-.08-.14-.18Z"/>
    <path class="cls-2" d="M1660.42,530.17v-39.73c0-3.61,1.38-6.76,4.15-9.46,1.9-1.64,3.95-2.46,6.15-2.46h6.82c3.54,0,6.47,1.95,8.79,5.84l.67,1.51,11.07-7.35,.07,.18v14.27c-.4,.35-3.86,2.68-10.37,7v18.32s10.2,0,10.2,0c.12,0,.18,.06,.18,.18v11.71c0,.12-.06,.18-.18,.18h-37.37c-.12-.02-.18-.08-.18-.18Zm8.96-11.88h9.42s0-22.89,0-22.89c0-2.44-1.07-3.98-3.2-4.64-.49-.09-.97-.14-1.44-.14-2.27,0-3.79,.95-4.54,2.85-.16,.59-.25,1.18-.25,1.79v23.03Z"/>
    <path class="cls-2" d="M1660.42,475.01v-13.85c.47-.42,3.06-1.97,7.77-4.64,.26-.21,5.72-3.45,16.38-9.7v-.07c-15.89-9.35-23.94-14.11-24.15-14.27v-13.92c.23,0,6.28,3.55,18.14,10.65,9.47,5.53,16,9.39,19.58,11.57v12.06c-.84,.59-13.2,7.86-37.05,21.83,0,.09-.22,.21-.67,.35Z"/>
    <path class="cls-2" d="M1660.42,414.86v-51.47c.02-.12,.08-.18,.18-.18h8.61c.12,0,.18,.06,.18,.18v51.47c0,.12-.06,.18-.18,.18h-8.61c-.12-.02-.18-.08-.18-.18Zm14.77,0v-51.47c.02-.12,.08-.18,.18-.18h7.84c.12,0,.18,.06,.18,.18v51.47c0,.12-.06,.18-.18,.18h-7.84c-.12-.02-.18-.08-.18-.18Zm14.03,0v-51.47c0-.12,.05-.18,.14-.18h8.61c.12,0,.18,.06,.18,.18v51.47c0,.12-.06,.18-.18,.18h-8.61c-.09-.02-.14-.08-.14-.18Z"/>
    <path class="cls-2" d="M1660.42,359.53v-39.73c0-3.61,1.38-6.76,4.15-9.46,1.9-1.64,3.95-2.46,6.15-2.46h6.82c3.54,0,6.47,1.95,8.79,5.84l.67,1.51,11.07-7.35,.07,.18v14.27c-.4,.35-3.86,2.68-10.37,7v18.32s10.2,0,10.2,0c.12,0,.18,.06,.18,.18v11.71c0,.12-.06,.18-.18,.18h-37.37c-.12-.02-.18-.08-.18-.18Zm8.96-11.88h9.42s0-22.89,0-22.89c0-2.44-1.07-3.98-3.2-4.64-.49-.09-.97-.14-1.44-.14-2.27,0-3.79,.95-4.54,2.85-.16,.59-.25,1.18-.25,1.79v23.03Z"/>
  </g>
</svg>