<?xml version="1.0" encoding="UTF-8" standalone="no"?>
<!DOCTYPE svg PUBLIC "-//W3C//DTD SVG 1.1//EN" "http://www.w3.org/Graphics/SVG/1.1/DTD/svg11.dtd">
<!-- Created with Vectornator (http://vectornator.io/) -->
<svg height="100%" stroke-miterlimit="10" style="fill-rule:nonzero;clip-rule:evenodd;stroke-linecap:round;stroke-linejoin:round;" version="1.1" viewBox="0 0 1336.65 326.311" width="100%" xml:space="preserve" xmlns="http://www.w3.org/2000/svg" xmlns:vectornator="http://vectornator.io" xmlns:xlink="http://www.w3.org/1999/xlink">
<defs>
<linearGradient gradientTransform="matrix(0.669188 0 0 0.669188 27.5332 3.01401)" gradientUnits="userSpaceOnUse" id="LinearGradient" x1="-14.5005" x2="1937.42" y1="251.979" y2="250.153">
<stop offset="0" stop-color="#d560eb"/>
<stop offset="0.427686" stop-color="#4681ff"/>
<stop offset="1" stop-color="#e3eb43"/>
</linearGradient>
<linearGradient gradientTransform="matrix(1.76876 0 0 1.17052 220.444 -62.4927)" gradientUnits="userSpaceOnUse" id="LinearGradient_2" x1="-108.278" x2="625.478" y1="201.323" y2="194.321">
<stop offset="0" stop-color="#d560eb"/>
<stop offset="0.427686" stop-color="#4681ff"/>
<stop offset="1" stop-color="#e3eb43"/>
</linearGradient>
</defs>
<g id="图层-1" vectornator:layerName="图层 1">
<path d="M210.655 74.9446C228.746 153.128 300.602 218.456 398.47 251.234L398.47 74.9446L210.655 74.9446ZM98.4699 74.9446L98.4699 251.367L264.314 251.367C212.389 204.588 177.306 143.256 167.564 74.9446L98.4699 74.9446Z" fill="url(#LinearGradient)" fill-rule="nonzero" opacity="1" stroke="none"/>
<g fill="url(#LinearGradient_2)" opacity="1" stroke="none">
<path d="M516.32 206.262L516.32 145.969L536.652 145.969L536.652 126.282L471.379 126.282L471.379 145.969L491.711 145.969L491.711 206.262L516.32 206.262Z"/>
<path d="M595.48 206.262L595.48 126.282L570.871 126.282L570.871 206.262L595.48 206.262Z"/>
<path d="M658.586 206.262L658.586 166.887L659.523 166.887L686.945 206.262L705.226 206.262L705.226 126.282L682.668 126.282L682.668 164.953L681.73 164.953L654.484 126.282L636.027 126.282L636.027 206.262L658.586 206.262Z"/>
<path d="M768.332 206.262L768.332 166.887L769.269 166.887L796.691 206.262L814.972 206.262L814.972 126.282L792.414 126.282L792.414 164.953L791.476 164.953L764.23 126.282L745.773 126.282L745.773 206.262L768.332 206.262Z"/>
<path d="M912.531 187.336L879.836 187.336L879.836 174.914L910.363 174.914L910.363 157.805L879.836 157.805L879.836 145.207L912.531 145.207L912.531 126.282L855.519 126.282L855.519 206.262L912.531 206.262L912.531 187.336Z"/>
<path d="M988 126.282L951.32 126.282L951.32 206.262L975.402 206.262L975.402 179.602L981.554 179.602L994.386 206.262L1021.4 206.262L1005.69 176.496C1007.22 175.793 1009.08 174.504 1011.29 172.629C1013.5 170.754 1015.45 168.254 1017.15 165.129C1018.85 162.004 1019.7 158.235 1019.7 153.821C1019.7 148.313 1018.51 143.489 1016.12 139.348C1013.74 135.207 1010.21 131.994 1005.52 129.709C1000.83 127.424 994.992 126.282 988 126.282ZM975.402 163.196L975.402 143.918L984.25 143.918C986.828 143.918 989.152 144.729 991.222 146.35C993.293 147.971 994.328 150.422 994.328 153.703C994.328 156.946 993.322 159.338 991.31 160.881C989.299 162.424 986.945 163.196 984.25 163.196L975.402 163.196Z"/>
<path d="M1078.29 206.262L1078.29 161.672L1079.46 161.672L1093.18 191.086L1106.07 191.086L1119.66 161.672L1120.77 161.672L1120.77 206.262L1142.86 206.262L1142.86 126.282L1117.37 126.282L1100.21 161.965L1099.39 161.965L1082.28 126.282L1056.55 126.282L1056.55 206.262L1078.29 206.262Z"/>
<path d="M1205.32 162.61C1205.32 158.743 1205.78 155.5 1206.7 152.883C1207.62 150.266 1208.95 148.284 1210.69 146.936C1212.42 145.588 1214.52 144.914 1216.98 144.914C1219.41 144.914 1221.44 145.5 1223.08 146.672C1224.72 147.844 1225.95 149.446 1226.77 151.477C1227.59 153.508 1228 155.793 1228 158.332L1251.26 158.332C1251.26 157.746 1251.26 157.17 1251.26 156.604C1251.26 156.037 1251.26 155.461 1251.26 154.875C1251.26 150.305 1250.41 146.184 1248.71 142.512C1247.01 138.84 1244.63 135.696 1241.56 133.078C1238.5 130.461 1234.86 128.459 1230.64 127.073C1226.42 125.686 1221.79 124.993 1216.75 124.993C1208.86 124.993 1202.19 126.545 1196.74 129.651C1191.29 132.756 1187.16 137.121 1184.35 142.746C1181.53 148.371 1180.13 155.012 1180.13 162.668L1180.13 169.875C1180.13 177.493 1181.53 184.123 1184.35 189.768C1187.16 195.412 1191.29 199.797 1196.74 202.922C1202.19 206.047 1208.86 207.61 1216.75 207.61C1223.47 207.61 1229.43 206.379 1234.62 203.918C1239.82 201.457 1243.89 197.991 1246.84 193.518C1249.79 189.045 1251.26 183.801 1251.26 177.785C1251.26 177.2 1251.26 176.604 1251.26 175.998C1251.26 175.393 1251.26 174.797 1251.26 174.211L1228 174.211C1228 176.75 1227.59 179.035 1226.77 181.067C1225.95 183.098 1224.72 184.709 1223.08 185.901C1221.44 187.092 1219.41 187.688 1216.98 187.688C1214.52 187.688 1212.42 187.014 1210.69 185.666C1208.95 184.319 1207.62 182.336 1206.7 179.719C1205.78 177.102 1205.32 173.879 1205.32 170.051L1205.32 162.61Z"/>
</g>
</g>
</svg>
